<svg width="36" height="36" viewBox="0 0 36 36" fill="none" xmlns="http://www.w3.org/2000/svg">
<g clip-path="url(#clip0)">
<path d="M22.1196 20.9829H13.8811L18.0004 32.3107L22.1196 20.9829Z" fill="black"/>
<path d="M24.3641 20.9829L18.9916 35.7574L18.9033 36L35.2856 20.9829H24.3641Z" fill="black"/>
<path d="M11.6367 20.9829H0.715088L17.0974 36L11.6367 20.9829Z" fill="black"/>
<path d="M7.3147 10.436L12.3752 18.0268L17.4358 10.436H7.3147Z" fill="black"/>
<path d="M18.5647 10.436L23.6252 18.0268L28.6858 10.436H18.5647Z" fill="black"/>
<path d="M18.0003 13.3921L14.3459 18.8736H21.6547L18.0003 13.3921Z" fill="black"/>
<path d="M5.48267 11.4907L0.560791 18.8736H10.4045L5.48267 11.4907Z" fill="black"/>
<path d="M30.5178 11.4907L25.5959 18.8735H35.4397L30.5178 11.4907Z" fill="black"/>
<path d="M29.2353 7.81997C28.9654 7.81997 28.6955 7.71697 28.4896 7.51102C28.0777 7.0992 28.0777 6.43137 28.4896 6.01948L31.4727 3.0364C31.8845 2.62458 32.5523 2.62458 32.9642 3.0364C33.3761 3.44822 33.3761 4.11605 32.9642 4.52794L29.9811 7.51102C29.7752 7.71697 29.5052 7.81997 29.2353 7.81997Z" fill="black"/>
<path d="M18 6.32812C17.4175 6.32812 16.9453 5.85591 16.9453 5.27344V1.05469C16.9453 0.472219 17.4175 0 18 0C18.5825 0 19.0547 0.472219 19.0547 1.05469V5.27344C19.0547 5.85591 18.5825 6.32812 18 6.32812Z" fill="black"/>
<path d="M6.76527 7.8199C6.49534 7.8199 6.22541 7.7169 6.01954 7.51095L3.03646 4.52794C2.62457 4.11612 2.62457 3.44829 3.03646 3.0364C3.44828 2.62458 4.11611 2.62458 4.528 3.0364L7.51107 6.01948C7.92297 6.4313 7.92297 7.09913 7.51107 7.51102C7.30513 7.7169 7.0352 7.8199 6.76527 7.8199Z" fill="black"/>
</g>
<defs>
<clipPath id="clip0">
<rect width="36" height="36" fill="white"/>
</clipPath>
</defs>
</svg>
