<svg width="36" height="36" viewBox="0 0 36 36" fill="none" xmlns="http://www.w3.org/2000/svg">
<g clip-path="url(#clip0)">
<path d="M18 5.1855C17.379 5.1855 16.875 4.6815 16.875 4.0605V1.125C16.875 0.504 17.379 0 18 0C18.621 0 19.125 0.504 19.125 1.125V4.0605C19.125 4.6815 18.621 5.1855 18 5.1855Z" fill="black"/>
<path d="M27.8563 9.26853C27.5683 9.26853 27.2803 9.15903 27.0613 8.93853C26.6218 8.49903 26.6218 7.78653 27.0613 7.34703L29.1373 5.27103C29.5768 4.83153 30.2893 4.83153 30.7288 5.27103C31.1683 5.71053 31.1683 6.42303 30.7288 6.86253L28.6528 8.93853C28.4323 9.15753 28.1443 9.26853 27.8563 9.26853Z" fill="black"/>
<path d="M34.875 19.125H31.9395C31.3185 19.125 30.8145 18.621 30.8145 18C30.8145 17.379 31.3185 16.875 31.9395 16.875H34.875C35.496 16.875 36 17.379 36 18C36 18.621 35.496 19.125 34.875 19.125Z" fill="black"/>
<path d="M29.9323 31.0576C29.6443 31.0576 29.3563 30.9481 29.1373 30.7276L27.0613 28.6516C26.6218 28.2121 26.6218 27.4996 27.0613 27.0601C27.5008 26.6206 28.2133 26.6206 28.6528 27.0601L30.7288 29.1361C31.1683 29.5756 31.1683 30.2881 30.7288 30.7276C30.5083 30.9481 30.2203 31.0576 29.9323 31.0576Z" fill="black"/>
<path d="M6.06749 31.0576C5.77949 31.0576 5.4915 30.9481 5.2725 30.7276C4.833 30.2881 4.833 29.5756 5.2725 29.1361L7.34849 27.0601C7.78799 26.6206 8.50049 26.6206 8.93999 27.0601C9.37949 27.4996 9.37949 28.2121 8.93999 28.6516L6.86399 30.7276C6.64349 30.9481 6.35549 31.0576 6.06749 31.0576Z" fill="black"/>
<path d="M4.0605 19.125H1.125C0.504 19.125 0 18.621 0 18C0 17.379 0.504 16.875 1.125 16.875H4.0605C4.6815 16.875 5.1855 17.379 5.1855 18C5.1855 18.621 4.6815 19.125 4.0605 19.125Z" fill="black"/>
<path d="M8.14349 9.26853C7.85549 9.26853 7.56749 9.15903 7.34849 8.93853L5.2725 6.86253C4.833 6.42303 4.833 5.71053 5.2725 5.27103C5.71199 4.83153 6.42449 4.83153 6.86399 5.27103L8.93999 7.34703C9.37949 7.78653 9.37949 8.49903 8.93999 8.93853C8.71799 9.15753 8.43149 9.26853 8.14349 9.26853Z" fill="black"/>
<path d="M22.5 31.5V33.375C22.5 34.815 21.315 36 19.875 36H16.125C14.865 36 13.5 35.04 13.5 32.94V31.5H22.5Z" fill="black"/>
<path d="M24.615 9.8399C22.155 7.8449 18.915 7.0649 15.75 7.7399C11.775 8.5649 8.54997 11.8049 7.72497 15.7799C6.88497 19.8599 8.41497 23.9099 11.685 26.3849C12.57 27.0449 13.185 28.0649 13.395 29.2499V29.2649C13.425 29.2499 13.47 29.2499 13.5 29.2499H22.5C22.53 29.2499 22.545 29.2499 22.575 29.2649V29.2499C22.785 28.1099 23.46 27.0599 24.495 26.2499C27.03 24.2399 28.5 21.2399 28.5 17.9999C28.5 14.8199 27.09 11.8499 24.615 9.8399ZM23.625 18.7499C23.01 18.7499 22.5 18.2399 22.5 17.6249C22.5 15.3449 20.655 13.4999 18.375 13.4999C17.76 13.4999 17.25 12.9899 17.25 12.3749C17.25 11.7599 17.76 11.2499 18.375 11.2499C21.885 11.2499 24.75 14.1149 24.75 17.6249C24.75 18.2399 24.24 18.7499 23.625 18.7499Z" fill="black"/>
<path d="M13.395 29.25H13.5C13.47 29.25 13.425 29.25 13.395 29.265V29.25Z" fill="black"/>
<path d="M22.575 29.25V29.265C22.545 29.25 22.53 29.25 22.5 29.25H22.575Z" fill="black"/>
</g>
<defs>
<clipPath id="clip0">
<rect width="36" height="36" fill="white"/>
</clipPath>
</defs>
</svg>
